<?xml version="1.0" standalone="no"?>
<!DOCTYPE svg PUBLIC "-//W3C//DTD SVG 20010904//EN"
 "http://www.w3.org/TR/2001/REC-SVG-20010904/DTD/svg10.dtd">
<svg version="1.0" xmlns="http://www.w3.org/2000/svg"
 width="1280.000000pt" height="640.000000pt" viewBox="0 0 1280.000000 640.000000"
 preserveAspectRatio="xMidYMid meet">
<metadata>
Created by potrace 1.15, written by Peter Selinger 2001-2017
</metadata>
<g transform="translate(0.000000,640.000000) scale(0.100000,-0.100000)"
fill="#000000" stroke="none">
<path d="M1956 4715 c-91 -25 -126 -81 -126 -202 0 -50 7 -101 20 -143 11 -36
29 -103 41 -150 11 -47 24 -103 29 -125 60 -246 104 -710 94 -980 -12 -343
-65 -722 -136 -980 -10 -38 -25 -94 -33 -123 -22 -79 -19 -186 6 -239 27 -55
60 -78 136 -94 66 -14 54 -15 383 41 104 18 174 29 395 60 201 28 511 61 740
79 537 43 1171 71 2355 101 504 13 1643 13 2000 0 764 -28 1312 -68 1895 -141
182 -22 519 -72 650 -95 257 -46 280 -49 350 -48 91 1 141 20 179 67 29 36 31
46 34 127 3 72 -1 103 -21 171 -14 46 -33 116 -42 154 -9 39 -20 88 -25 110
-22 91 -59 328 -81 520 -15 138 -16 567 0 700 27 231 46 356 81 525 20 95 30
135 76 300 10 35 15 83 12 136 -3 70 -7 85 -31 117 -16 21 -40 45 -53 54 -48
31 -186 29 -374 -6 -177 -32 -392 -65 -597 -91 -235 -29 -247 -30 -548 -59
-94 -9 -195 -17 -545 -41 -160 -10 -487 -25 -915 -40 -365 -13 -1962 -13
-2360 0 -948 31 -1360 53 -1915 101 -353 30 -766 79 -1015 119 -211 34 -264
43 -390 65 -157 28 -198 29 -269 10z"/>
</g>
</svg>
